<svg xmlns="http://www.w3.org/2000/svg" xmlns:xlink="http://www.w3.org/1999/xlink" width="500" zoomAndPan="magnify" viewBox="0 0 375 374.999991" height="500" preserveAspectRatio="xMidYMid meet" version="1.0"><defs><clipPath id="e8b25ff06d"><path d="M 238 156 L 331.476562 156 L 331.476562 324 L 238 324 Z M 238 156 " clip-rule="nonzero"/></clipPath><clipPath id="46e3358338"><path d="M 44 19.542969 L 255 19.542969 L 255 305 L 44 305 Z M 44 19.542969 " clip-rule="nonzero"/></clipPath><clipPath id="e7c8d02b7f"><path d="M 43.476562 301 L 331 301 L 331 355.542969 L 43.476562 355.542969 Z M 43.476562 301 " clip-rule="nonzero"/></clipPath></defs><g clip-path="url(#e8b25ff06d)"><path fill="#393536" d="M 329.433594 323.851562 C 328.78125 323.851562 328.164062 323.484375 327.875 322.855469 C 325.074219 316.785156 308.441406 286.722656 290.839844 254.898438 C 270.964844 218.964844 248.4375 178.242188 238.804688 159.453125 C 238.375 158.605469 238.703125 157.566406 239.550781 157.132812 C 240.382812 156.710938 241.421875 157.03125 241.863281 157.878906 C 251.472656 176.621094 273.992188 217.324219 293.851562 253.238281 C 312.253906 286.5 328.144531 315.230469 330.992188 321.417969 C 331.394531 322.273438 331.019531 323.300781 330.152344 323.695312 C 329.921875 323.800781 329.675781 323.851562 329.433594 323.851562 " fill-opacity="1" fill-rule="nonzero"/></g><g clip-path="url(#46e3358338)"><path fill="#393536" d="M 154.378906 137.054688 C 160.488281 142.296875 168.269531 146.078125 178.183594 147.148438 C 203.105469 149.894531 223.054688 147.847656 227.820312 142.097656 C 228.824219 140.886719 229.070312 139.566406 228.582031 137.953125 C 228.050781 136.1875 226.003906 134.46875 222.664062 132.980469 C 207.925781 126.429688 175.132812 126.578125 161.105469 133.230469 C 158.355469 134.535156 156.226562 135.71875 154.378906 137.054688 Z M 47.425781 304.691406 L 44.511719 302.878906 C 44.511719 302.878906 123.707031 175.519531 137.160156 153.957031 C 142.433594 145.496094 145.496094 140.589844 149.191406 136.96875 C 140.535156 128.203125 135.515625 116.636719 132.617188 106.375 C 127.839844 89.484375 120.511719 33.742188 120.199219 31.378906 L 120.019531 30 L 139.800781 22.9375 L 140.351562 24.625 C 140.417969 24.835938 147.4375 46.171875 161.300781 62.472656 C 174.90625 78.496094 200.273438 76.324219 215.4375 64.273438 C 227.277344 54.84375 229.65625 39.449219 231.957031 24.5625 L 232.734375 19.574219 L 254.15625 23.09375 L 254.15625 24.550781 C 254.15625 24.828125 254.082031 31.726562 247.53125 68.089844 C 240.960938 104.558594 237.324219 112.097656 237.167969 112.402344 C 236.746094 113.253906 235.683594 113.589844 234.863281 113.171875 C 234.011719 112.75 233.667969 111.722656 234.085938 110.875 C 234.179688 110.683594 237.773438 102.808594 244.144531 67.484375 C 249.128906 39.8125 250.332031 29.410156 250.617188 25.996094 L 235.59375 23.527344 L 235.355469 25.089844 C 232.953125 40.625 230.476562 56.703125 217.578125 66.964844 C 201.164062 80.035156 173.574219 82.226562 158.679688 64.703125 C 146.5 50.371094 139.613281 32.820312 137.65625 27.359375 L 123.792969 32.304688 C 124.976562 41.179688 131.632812 90.238281 135.921875 105.429688 C 138.703125 115.277344 143.515625 126.367188 151.824219 134.6875 C 153.957031 133.0625 156.429688 131.644531 159.628906 130.125 C 174.324219 123.140625 208.648438 122.992188 224.054688 129.835938 C 228.410156 131.769531 231.035156 134.164062 231.875 136.960938 C 232.691406 139.671875 232.195312 142.210938 230.457031 144.300781 C 223.714844 152.410156 198.832031 152.855469 177.808594 150.578125 C 166.835938 149.382812 158.308594 145.148438 151.683594 139.320312 C 148.285156 142.621094 145.398438 147.253906 140.074219 155.789062 C 126.621094 177.34375 47.425781 304.691406 47.425781 304.691406 " fill-opacity="1" fill-rule="nonzero"/></g><g clip-path="url(#e7c8d02b7f)"><path fill="#393536" d="M 137.054688 355.5 C 135.367188 355.5 133.648438 355.472656 131.90625 355.40625 C 71.21875 353.128906 53.210938 320.777344 44.554688 305.222656 L 43.902344 304.046875 C 43.4375 303.21875 43.730469 302.171875 44.5625 301.707031 C 45.359375 301.222656 46.429688 301.523438 46.898438 302.363281 L 47.566406 303.546875 C 55.90625 318.554688 73.285156 349.765625 132.039062 351.964844 C 165.917969 353.328125 189.230469 341.316406 211.644531 329.796875 C 229.496094 320.613281 246.355469 311.941406 267.707031 310.09375 C 314.390625 306.078125 329.453125 320.300781 330.070312 320.910156 C 330.742188 321.574219 330.757812 322.667969 330.085938 323.34375 C 329.417969 324.015625 328.332031 324.035156 327.652344 323.359375 C 327.527344 323.226562 312.859375 309.667969 268.003906 313.523438 C 247.328125 315.3125 230.757812 323.835938 213.214844 332.863281 C 191.5625 344 169.191406 355.5 137.054688 355.5 " fill-opacity="1" fill-rule="nonzero"/></g></svg>