<svg xmlns="http://www.w3.org/2000/svg" xmlns:xlink="http://www.w3.org/1999/xlink" width="500" zoomAndPan="magnify" viewBox="0 0 375 374.999991" height="500" preserveAspectRatio="xMidYMid meet" version="1.0"><defs><clipPath id="6474901e10"><path d="M 32.570312 64 L 354.320312 64 L 354.320312 311 L 32.570312 311 Z M 32.570312 64 " clip-rule="nonzero"/></clipPath></defs><g clip-path="url(#6474901e10)"><path fill="#000000" d="M 351.992188 214.746094 C 351.445312 213.695312 350.015625 211.84375 348.753906 210.664062 C 346.5625 208.558594 340.503906 203.929688 339.367188 203.507812 C 339.03125 203.382812 338.820312 202.582031 338.777344 201.617188 C 338.777344 200.691406 338.652344 199.59375 338.484375 199.132812 C 338.273438 198.542969 338.945312 197.449219 340.882812 195.050781 C 346.773438 187.8125 349.636719 183.308594 349.636719 181.246094 C 349.636719 180.699219 349.171875 179.730469 348.667969 179.101562 C 347.699219 177.964844 347.617188 177.964844 343.113281 178.046875 C 340.589844 178.089844 336 178.300781 332.929688 178.554688 C 327.414062 178.972656 326.53125 178.890625 326.53125 178.046875 C 326.53125 177.078125 323.417969 170.472656 322.785156 170.136719 C 322.195312 169.800781 322.449219 169.082031 324.511719 164.792969 C 327.332031 158.984375 327.960938 156.710938 327.710938 153.34375 C 327.5 150.480469 326.40625 148.671875 324.257812 147.621094 C 322.703125 146.863281 318.871094 146.738281 316.347656 147.324219 L 314.789062 147.703125 L 316.011719 146.0625 C 317.734375 143.664062 319.082031 139.328125 318.832031 137.015625 C 318.535156 134.449219 317.484375 133.144531 314.496094 131.628906 C 312.222656 130.492188 311.550781 130.367188 307.761719 130.324219 C 305.449219 130.28125 302.667969 130.449219 301.535156 130.660156 C 300.4375 130.871094 299.34375 130.996094 299.136719 130.914062 C 298.925781 130.828125 299.765625 129.355469 301.027344 127.628906 C 306.332031 120.351562 307.886719 115.257812 305.574219 112.523438 C 304.144531 110.839844 299.511719 107.976562 293.832031 105.285156 C 291.265625 104.0625 287.015625 102.042969 284.363281 100.78125 C 279.230469 98.339844 275.484375 97.078125 268.371094 95.351562 C 257.09375 92.65625 238.320312 86.851562 226.285156 82.304688 C 221.78125 80.621094 215.34375 78.179688 211.976562 76.917969 C 208.609375 75.65625 202.171875 73.214844 197.667969 71.488281 C 187.019531 67.449219 185.84375 67.15625 184.578125 67.953125 C 183.738281 68.5 182.390625 68.417969 172.164062 67.195312 C 165.851562 66.4375 158.699219 65.511719 156.257812 65.175781 C 149.4375 64.167969 149.945312 64 145.777344 68.207031 C 143.589844 70.394531 138.496094 76.664062 133.195312 83.695312 C 120.988281 99.855469 116.359375 104.316406 104.578125 111.46875 C 101.042969 113.617188 89.425781 118.75 81.765625 121.570312 C 79.453125 122.410156 74.90625 124.390625 71.667969 125.988281 C 65.902344 128.765625 65.648438 128.976562 60.933594 133.648438 C 58.285156 136.300781 55.167969 139.667969 54.03125 141.179688 C 49.867188 146.695312 46.835938 154.648438 45.574219 163.445312 C 44.816406 168.621094 45.109375 171.734375 46.667969 174.34375 L 47.550781 175.816406 L 46.121094 177.332031 C 38.882812 184.992188 38.25 185.792969 37.621094 187.894531 C 36.820312 190.546875 37.242188 192.316406 39.34375 195.386719 L 40.859375 197.574219 L 37.703125 203.972656 C 33.75 211.84375 32.570312 215.546875 32.570312 219.753906 C 32.570312 222.320312 32.78125 223.375 33.707031 225.394531 C 35.050781 228.253906 38.839844 232.167969 42.671875 234.652344 C 44.058594 235.578125 45.238281 236.335938 45.320312 236.417969 C 45.40625 236.460938 44.816406 237.808594 44.058594 239.40625 C 39.472656 248.75 45.953125 256.113281 64.765625 262.808594 C 72.761719 265.667969 87.070312 269.035156 104.746094 272.191406 C 117.414062 274.464844 129.617188 277.746094 142.03125 282.207031 C 145.484375 283.429688 151.878906 285.742188 156.300781 287.34375 C 170.566406 292.476562 175.953125 294.664062 183.652344 298.664062 C 187.820312 300.808594 192.449219 303.082031 193.964844 303.671875 C 197.164062 304.933594 205.328125 307.164062 208.90625 307.753906 C 210.292969 307.964844 213.40625 308.636719 215.847656 309.226562 C 223.257812 310.992188 228.09375 310.613281 239.417969 307.289062 C 248.085938 304.722656 253.179688 302.324219 261.007812 297.191406 C 268.414062 292.265625 283.183594 281.871094 290.339844 276.441406 C 296.019531 272.148438 306.878906 264.996094 316.433594 259.1875 C 333.980469 248.539062 341.386719 243.320312 346.648438 237.722656 C 351.824219 232.296875 354.308594 227.664062 354.308594 223.5 C 354.308594 221.226562 353.214844 217.144531 351.992188 214.746094 Z M 326.828125 184.992188 C 327.035156 183.730469 327.164062 183.644531 329.226562 183.394531 C 330.402344 183.265625 334.148438 182.972656 337.472656 182.804688 C 340.839844 182.636719 343.828125 182.425781 344.125 182.425781 C 345.21875 182.296875 339.871094 189.664062 335.875 193.871094 C 333.054688 196.816406 327.753906 201.195312 319.417969 207.421875 C 313.273438 212.011719 308.984375 216.007812 303.679688 222.070312 C 300.902344 225.226562 296.777344 228.96875 288.320312 236.082031 C 283.648438 239.996094 281.628906 241.386719 272.914062 246.773438 C 264.457031 251.992188 263.152344 252.789062 260.921875 254.011719 C 259.871094 254.601562 254.019531 257.96875 247.875 261.542969 C 232.472656 270.464844 231.546875 271.476562 230.15625 280.019531 C 229.652344 283.175781 229.359375 283.597656 227.378906 284.269531 C 225.695312 284.816406 223.214844 284.648438 219.003906 283.679688 C 217.363281 283.300781 212.988281 282.796875 209.199219 282.542969 C 196.617188 281.703125 183.652344 277.535156 164.714844 268.234375 C 158.234375 265.039062 151.121094 261.839844 148.890625 261.125 C 145.273438 259.945312 144.769531 259.648438 143.925781 258.21875 C 136.898438 246.644531 134.203125 241.21875 134.203125 238.816406 C 134.203125 237.34375 135.257812 233.726562 135.972656 232.714844 C 136.476562 232 136.8125 232.042969 142.410156 233.261719 C 153.816406 235.789062 166.484375 239.195312 175.65625 242.101562 C 180.75 243.742188 188.703125 246.015625 193.332031 247.152344 C 197.964844 248.289062 204.695312 250.140625 208.273438 251.277344 C 217.492188 254.222656 219.132812 254.472656 224.140625 253.882812 C 231.210938 253.042969 232.429688 252.664062 257.933594 243.28125 C 265.296875 240.542969 269.421875 238.144531 273.96875 233.851562 C 280.28125 227.917969 289.625 220.933594 299.808594 214.492188 C 307.382812 209.695312 311.761719 206.246094 317.0625 200.859375 C 322.914062 194.964844 325.984375 189.914062 326.828125 184.992188 Z M 134.835938 251.527344 C 136.5625 254.515625 137.949219 257 137.867188 257.042969 C 137.824219 257.082031 135.128906 256.410156 131.890625 255.527344 C 127.472656 254.304688 125.828125 253.675781 125.242188 252.917969 C 122.839844 249.929688 120.484375 246.394531 119.222656 243.953125 C 116.738281 239.238281 117.414062 234.988281 121.160156 231.328125 C 122.085938 230.445312 122.839844 229.433594 122.839844 229.097656 C 122.839844 228.675781 123.136719 228.589844 123.765625 228.761719 C 124.273438 228.886719 126.292969 229.433594 128.226562 229.9375 C 131.132812 230.695312 131.679688 230.949219 131.425781 231.496094 C 131.257812 231.875 130.753906 233.515625 130.332031 235.113281 C 128.984375 240.039062 129.785156 242.902344 134.835938 251.527344 Z M 299.386719 135.835938 C 301.449219 135.5 303.636719 135.121094 304.226562 134.996094 C 306.457031 134.617188 311.59375 135.039062 312.980469 135.753906 C 314.074219 136.34375 314.328125 136.71875 314.328125 137.816406 C 314.328125 140.214844 312.140625 144 308.605469 147.746094 C 305.363281 151.199219 294.503906 161.046875 289.328125 165.210938 C 287.941406 166.347656 285.078125 168.832031 282.972656 170.683594 C 273.253906 179.4375 266.097656 184.699219 246.738281 197.238281 C 242.445312 200.015625 236.808594 203.761719 234.238281 205.570312 C 221.402344 214.535156 215.765625 218.070312 212.902344 218.953125 C 211.304688 219.417969 209.832031 219.710938 209.578125 219.542969 C 208.527344 218.871094 207.769531 216.640625 208.019531 214.660156 C 208.695312 209.023438 214.375 202.078125 222.539062 196.984375 C 234.660156 189.410156 236.640625 187.9375 241.394531 183.054688 C 245.433594 178.847656 251.410156 171.273438 262.101562 156.753906 C 266.265625 151.070312 272.242188 146.609375 283.269531 140.929688 C 289.457031 137.730469 290.761719 137.308594 299.386719 135.835938 Z M 185.546875 72.035156 C 186.136719 72.035156 195.3125 75.359375 204.695312 78.980469 C 219.003906 84.535156 232.765625 89.542969 239.417969 91.691406 C 245.097656 93.542969 261.382812 98.253906 265.46875 99.265625 C 266.8125 99.601562 266.433594 99.8125 257.132812 103.9375 C 240.722656 111.21875 227.464844 115.257812 218.585938 115.636719 C 204.316406 116.265625 188.285156 110.839844 179.824219 102.503906 C 176.078125 98.800781 174.605469 95.984375 174.605469 92.449219 C 174.605469 88.28125 177.132812 82.726562 181.929688 76.246094 C 183.695312 73.972656 185.296875 72.035156 185.546875 72.035156 Z M 49.949219 164.832031 C 50.792969 158.101562 52.980469 151.238281 55.96875 146.230469 C 56.726562 144.925781 59.839844 141.308594 62.828125 138.195312 C 68.214844 132.597656 68.339844 132.511719 73.351562 130.070312 C 76.128906 128.722656 80.96875 126.664062 84.039062 125.484375 C 95.191406 121.277344 104.324219 117.066406 109.332031 113.785156 C 120.609375 106.417969 124.863281 102.210938 136.5625 86.640625 C 141.0625 80.621094 146.199219 74.226562 147.925781 72.414062 C 149.648438 70.605469 151.25 69.089844 151.460938 69.089844 C 151.667969 69.089844 154.53125 69.46875 157.8125 69.933594 C 161.097656 70.394531 167.113281 71.152344 171.15625 71.617188 C 175.195312 72.078125 178.5625 72.542969 178.644531 72.625 C 178.730469 72.710938 177.929688 73.929688 176.878906 75.359375 C 171.027344 83.316406 168.839844 90.765625 170.648438 96.699219 C 172.753906 103.640625 178.308594 109.027344 188.113281 113.699219 C 201.328125 120.011719 215.46875 121.863281 228.054688 118.960938 C 238.152344 116.605469 249.851562 112.269531 266.6875 104.609375 C 269.71875 103.222656 271.441406 102.714844 273.757812 102.503906 L 276.828125 102.210938 L 282.175781 104.777344 C 285.121094 106.167969 289.414062 108.230469 291.726562 109.28125 C 294.042969 110.332031 297.324219 112.101562 298.964844 113.109375 C 301.492188 114.667969 301.996094 115.214844 301.996094 116.097656 C 301.996094 117.570312 299.554688 121.863281 296.273438 126.324219 C 293.875 129.566406 293.160156 130.199219 290.085938 131.878906 C 288.191406 132.933594 286.171875 133.941406 285.582031 134.113281 C 284.996094 134.28125 284.152344 134.742188 283.691406 135.164062 C 283.226562 135.585938 280.785156 137.015625 278.21875 138.363281 C 268.246094 143.664062 262.140625 148.589844 257.261719 155.40625 C 249.894531 165.632812 241.5625 176.238281 238.027344 179.984375 C 233.988281 184.191406 231.628906 185.917969 219.847656 193.28125 C 213.828125 197.070312 207.558594 203.296875 205.453125 207.675781 C 204.613281 209.402344 203.730469 212.136719 203.433594 213.820312 C 202.972656 216.429688 203.011719 217.058594 203.601562 218.574219 L 204.277344 220.34375 L 202.929688 220.046875 C 202.171875 219.878906 199.941406 219.332031 197.964844 218.742188 C 195.984375 218.195312 190.554688 216.808594 185.96875 215.671875 C 177.972656 213.695312 173.257812 212.726562 152.972656 208.855469 C 126.207031 203.761719 112.109375 199.847656 91.320312 191.683594 C 85.976562 189.578125 77.9375 186.632812 73.433594 185.074219 C 62.238281 181.246094 56.433594 178.382812 53.023438 175.058594 C 49.78125 171.691406 49.320312 170.21875 49.949219 164.832031 Z M 46.375 183.644531 L 50.539062 179.015625 L 52.476562 180.53125 C 55.507812 182.84375 62.871094 186.171875 71.875 189.285156 C 76.378906 190.839844 84.417969 193.789062 89.761719 195.890625 C 112.277344 204.730469 130.25 209.527344 162.023438 215.167969 C 171.574219 216.851562 181.214844 218.996094 192.28125 221.898438 C 198.425781 223.5 204.359375 224.847656 205.410156 224.847656 C 208.019531 224.847656 212.988281 223.835938 215.976562 222.742188 C 218.289062 221.859375 225.488281 217.269531 237.566406 208.855469 C 240.382812 206.875 245.941406 203.214844 249.894531 200.648438 C 266.980469 189.621094 275.820312 183.183594 284.996094 175.058594 C 288.613281 171.863281 292.066406 168.832031 292.738281 168.328125 C 294.96875 166.601562 304.4375 158.226562 307.46875 155.238281 C 310.414062 152.375 310.539062 152.292969 312.519531 152.375 C 313.613281 152.417969 315.210938 152.292969 316.011719 152.082031 C 316.808594 151.871094 318.621094 151.746094 320.007812 151.785156 C 322.238281 151.828125 322.574219 151.957031 323.039062 152.921875 C 323.964844 154.859375 322.953125 157.804688 317.90625 168.03125 C 312.308594 179.394531 308.8125 184.867188 304.773438 188.738281 C 300.269531 193.070312 296.945312 195.132812 285.035156 201.152344 C 268.960938 209.273438 261.382812 213.902344 252.925781 220.847656 C 251.199219 222.238281 245.730469 226.53125 240.722656 230.359375 C 232.515625 236.671875 231.628906 237.472656 231.503906 238.691406 C 231.210938 241.597656 233.902344 242.269531 236.175781 239.871094 C 236.933594 239.113281 240.34375 236.335938 243.835938 233.683594 C 247.285156 231.074219 252.042969 227.371094 254.355469 225.476562 C 263.992188 217.648438 270.769531 213.441406 287.308594 205.066406 C 299.09375 199.089844 303.972656 195.976562 308.394531 191.558594 C 311.382812 188.570312 315.925781 182.089844 318.113281 177.585938 C 318.871094 176.027344 319.714844 174.722656 319.964844 174.722656 C 320.515625 174.722656 322.238281 178.929688 322.574219 181.078125 C 322.871094 183.054688 321.820312 186.800781 319.882812 190.292969 C 318.789062 192.273438 316.851562 194.546875 312.855469 198.5 C 307.300781 204.015625 306.035156 205.023438 298.714844 209.738281 C 284.617188 218.871094 277.882812 223.921875 271.105469 230.316406 C 266.6875 234.527344 263.109375 236.546875 254.316406 239.703125 C 251.285156 240.796875 245.015625 243.070312 240.382812 244.792969 C 230.367188 248.457031 226.75 249.296875 221.066406 249.339844 C 217.027344 249.382812 216.523438 249.253906 209.496094 246.941406 C 205.453125 245.59375 199.015625 243.785156 195.183594 242.902344 C 188.453125 241.34375 181.085938 239.195312 170.566406 235.746094 C 165.261719 234.019531 152.554688 230.820312 137.949219 227.582031 C 128.3125 225.433594 125.113281 224.550781 115.433594 221.183594 C 111.730469 219.921875 105.039062 217.816406 100.578125 216.597656 C 96.117188 215.335938 89.214844 213.1875 85.21875 211.84375 C 56.8125 202.078125 55.84375 201.742188 50.667969 198.796875 C 46.878906 196.691406 44.226562 194.503906 42.839844 192.441406 C 40.988281 189.664062 40.988281 189.707031 46.375 183.644531 Z M 38.964844 225.394531 C 35.851562 220.847656 36.273438 217.480469 41.28125 206.832031 C 42.964844 203.296875 44.394531 200.4375 44.4375 200.4375 C 44.480469 200.4375 45.070312 200.773438 45.699219 201.195312 C 49.910156 204.097656 54.328125 205.992188 66.617188 210.199219 C 71.917969 212.050781 79.496094 214.660156 83.449219 216.007812 C 87.363281 217.355469 93.425781 219.25 96.917969 220.21875 C 100.367188 221.183594 106.679688 223.121094 110.890625 224.507812 L 118.550781 227.078125 L 116.527344 229.726562 C 111.773438 235.914062 112.066406 242.183594 117.539062 250.265625 C 118.128906 251.148438 118.632812 251.90625 118.632812 251.992188 C 118.632812 252.285156 112.445312 250.390625 106.007812 248.117188 C 102.429688 246.855469 97.71875 245.257812 95.570312 244.625 C 91.445312 243.363281 79.664062 240.921875 72.339844 239.828125 C 67.121094 239.027344 59.714844 237.386719 55.925781 236.167969 C 49.613281 234.105469 41.40625 228.886719 38.964844 225.394531 Z M 236.050781 298.875 C 227.886719 302.871094 224.898438 303.628906 217.320312 303.585938 C 206.464844 303.542969 200.152344 301.734375 185.042969 294.285156 C 175.828125 289.742188 171.828125 288.058594 161.140625 284.226562 C 154.070312 281.703125 145.652344 278.671875 142.410156 277.496094 C 130.835938 273.328125 117.917969 269.917969 105.503906 267.730469 C 101.503906 267.015625 96.117188 265.964844 93.59375 265.414062 C 91.027344 264.867188 85.765625 263.734375 81.851562 262.890625 C 68.847656 260.113281 56.472656 255.398438 51.214844 251.191406 C 49.066406 249.464844 47.132812 246.476562 47.132812 244.835938 C 47.132812 243.53125 48.226562 240.796875 49.277344 239.449219 C 49.824219 238.777344 50.035156 238.777344 52.6875 239.746094 C 57.148438 241.386719 63.332031 242.816406 72.675781 244.414062 C 88.667969 247.152344 92.667969 248.117188 104.324219 252.285156 C 110.972656 254.640625 114.339844 255.652344 127.679688 259.144531 C 140.8125 262.597656 150.703125 266.300781 163.03125 272.402344 C 173.976562 277.832031 179.445312 280.0625 189.378906 283.261719 C 197.078125 285.742188 201.707031 286.585938 209.621094 287.132812 C 213.660156 287.382812 217.699219 287.890625 219.089844 288.308594 C 220.648438 288.773438 223.003906 289.027344 225.527344 289.027344 C 229.441406 289.027344 229.570312 288.984375 231.292969 287.59375 C 233.3125 285.996094 233.902344 284.566406 234.996094 279.007812 C 235.796875 274.96875 236.429688 273.875 239.121094 272.023438 C 241.140625 270.632812 252.839844 263.734375 260.25 259.566406 C 263.027344 258.007812 266.140625 256.199219 267.191406 255.566406 C 268.246094 254.9375 271.90625 252.621094 275.398438 250.519531 C 283.984375 245.214844 286.128906 243.742188 290.589844 240.039062 C 299.175781 232.882812 303.089844 229.308594 307.425781 224.59375 C 314.074219 217.355469 315.503906 216.050781 322.492188 210.746094 C 325.984375 208.136719 329.941406 205.023438 331.328125 203.847656 C 332.71875 202.710938 333.980469 201.742188 334.148438 201.742188 C 334.527344 201.699219 334.148438 203.847656 333.351562 206.078125 C 333.054688 206.960938 331.496094 209.820312 329.898438 212.390625 C 328.300781 214.957031 325.4375 219.753906 323.5 222.996094 C 320.597656 227.875 319.210938 229.726562 315.335938 233.683594 C 307.929688 241.34375 306.710938 242.4375 302.667969 245.171875 C 300.609375 246.605469 297.15625 249.003906 295.09375 250.519531 C 293.03125 252.03125 289.117188 254.808594 286.46875 256.621094 C 281.082031 260.324219 269.71875 271.140625 260.5 281.324219 C 253.558594 289.027344 248.085938 292.980469 236.050781 298.875 Z M 348.667969 227.496094 C 347.238281 230.402344 342.859375 235.535156 339.242188 238.566406 C 335.621094 241.554688 324.429688 249.003906 313.90625 255.359375 C 304.351562 261.125 293.496094 268.320312 287.8125 272.613281 C 274.347656 282.753906 253.472656 297.023438 249.515625 298.789062 C 247.117188 299.839844 240.382812 302.28125 239.921875 302.28125 C 239.753906 302.28125 241.394531 301.3125 243.582031 300.179688 C 251.535156 295.96875 258.058594 291.046875 262.4375 286.078125 C 264.246094 284.015625 269.929688 278.125 275.019531 273.035156 C 284.824219 263.226562 285.457031 262.722656 304.394531 249.71875 C 308.5625 246.855469 310.917969 244.792969 316.515625 239.070312 L 323.460938 231.957031 L 329.6875 221.773438 C 333.097656 216.175781 336.335938 210.789062 336.800781 209.820312 C 337.304688 208.855469 337.769531 208.054688 337.894531 208.054688 C 338.316406 208.054688 345.089844 213.1875 346.269531 214.453125 C 348.121094 216.386719 349.425781 219.5 349.679688 222.65625 C 349.761719 224.847656 349.636719 225.5625 348.667969 227.496094 Z M 348.667969 227.496094 " fill-opacity="1" fill-rule="nonzero"/></g><path fill="#000000" d="M 201.875 108.019531 C 209.242188 110.121094 212.019531 110.460938 221.488281 110.5 C 229.230469 110.542969 230.285156 110.460938 234.746094 109.40625 C 237.394531 108.777344 241.351562 107.890625 243.5 107.429688 C 246.90625 106.671875 247.875 106.25 250.78125 104.1875 C 253.726562 102.125 255.789062 100.023438 255.324219 99.644531 C 253.472656 98.171875 246.109375 95.730469 237.101562 93.667969 C 222.457031 90.300781 214.542969 88.070312 207.601562 85.292969 C 204.824219 84.199219 200.742188 82.640625 198.46875 81.882812 C 196.238281 81.085938 192.660156 79.695312 190.515625 78.769531 C 186.09375 76.875 185.507812 76.75 184.496094 77.84375 C 183.066406 79.402344 181.550781 83.902344 181.59375 86.554688 C 181.59375 89.332031 182.9375 94.71875 184.203125 97.246094 C 186.433594 101.496094 192.953125 105.492188 201.875 108.019531 Z M 186.851562 83.316406 C 187.0625 82.894531 187.359375 82.558594 187.527344 82.558594 C 187.695312 82.558594 189.882812 83.398438 192.449219 84.410156 C 209.703125 91.269531 213.578125 92.53125 230.957031 96.824219 C 239.375 98.929688 246.488281 100.824219 246.695312 101.03125 C 247.328125 101.664062 245.015625 102.589844 240.890625 103.390625 C 238.828125 103.808594 235.164062 104.566406 232.808594 105.113281 C 219.804688 108.144531 198.382812 104.484375 190.722656 97.917969 C 188.453125 95.984375 187.90625 94.847656 186.808594 90.34375 C 185.925781 86.808594 185.96875 85.039062 186.851562 83.316406 Z M 186.851562 83.316406 " fill-opacity="1" fill-rule="nonzero"/><path fill="#000000" d="M 147.25 239.953125 C 145.441406 239.953125 144.976562 240.121094 143.671875 241.425781 C 142.410156 242.691406 142.199219 243.195312 142.199219 244.792969 C 142.199219 247.867188 144.261719 250.011719 147.25 250.011719 C 150.238281 250.011719 152.300781 247.78125 152.300781 244.582031 C 152.300781 243.195312 152.007812 242.605469 150.828125 241.386719 C 149.523438 240.164062 149.058594 239.953125 147.25 239.953125 Z M 147.25 239.953125 " fill-opacity="1" fill-rule="nonzero"/></svg>