<svg xmlns="http://www.w3.org/2000/svg" xmlns:xlink="http://www.w3.org/1999/xlink" width="500" zoomAndPan="magnify" viewBox="0 0 375 374.999991" height="500" preserveAspectRatio="xMidYMid meet" version="1.0"><defs><clipPath id="80ef6acc07"><path d="M 50.527344 256.097656 L 366.695312 256.097656 L 366.695312 258.953125 L 50.527344 258.953125 Z M 50.527344 256.097656 " clip-rule="nonzero"/></clipPath></defs><path fill="#000000" d="M 53.054688 125.464844 C 95.113281 125.425781 137.171875 123.195312 179.226562 123.894531 C 196.808594 124.1875 214.339844 124.617188 231.914062 123.804688 C 252.625 122.847656 273.347656 123.863281 294.066406 123.582031 C 317.878906 123.257812 341.6875 123.769531 365.5 123.789062 C 367.09375 123.789062 367.09375 121.316406 365.5 121.316406 C 344.511719 121.300781 323.527344 120.835938 302.539062 121.003906 C 281.65625 121.175781 260.730469 120.4375 239.855469 121.015625 C 201.910156 122.0625 164 121.046875 126.042969 121.816406 C 101.714844 122.308594 77.390625 122.972656 53.054688 122.992188 C 51.464844 122.996094 51.460938 125.464844 53.054688 125.464844 " fill-opacity="1" fill-rule="nonzero"/><path fill="#000000" d="M 52.644531 171.289062 C 71.679688 171.929688 90.613281 170.527344 109.636719 170.390625 C 129.707031 170.246094 149.769531 170.671875 169.839844 170.898438 C 209.191406 171.351562 248.441406 168.023438 287.785156 168.320312 C 301.023438 168.417969 314.230469 168.890625 327.46875 168.445312 C 340.148438 168.015625 352.808594 167.355469 365.5 167.40625 C 367.09375 167.414062 367.09375 164.941406 365.5 164.9375 C 342.976562 164.84375 320.539062 166.433594 298.003906 165.988281 C 278.011719 165.59375 258.042969 166.0625 238.070312 166.898438 C 198.628906 168.546875 159.355469 167.917969 119.898438 167.894531 C 97.46875 167.882812 75.074219 169.570312 52.644531 168.820312 C 51.054688 168.765625 51.054688 171.238281 52.644531 171.289062 " fill-opacity="1" fill-rule="nonzero"/><path fill="#000000" d="M 365.5 212.179688 C 327.796875 212.140625 290.03125 213.257812 252.363281 212.222656 C 231.710938 211.65625 211.042969 212.710938 190.367188 212.21875 C 169.390625 211.714844 148.445312 211.871094 127.460938 212.011719 C 102.523438 212.175781 77.585938 212.257812 52.644531 212.261719 C 51.054688 212.261719 51.050781 214.734375 52.644531 214.730469 C 95.800781 214.726562 139.039062 213.515625 182.183594 214.492188 C 202.859375 214.964844 223.460938 214.394531 244.117188 214.539062 C 263.964844 214.675781 283.621094 215.09375 303.472656 214.59375 C 324.144531 214.078125 344.824219 214.628906 365.5 214.648438 C 367.09375 214.652344 367.09375 212.179688 365.5 212.179688 " fill-opacity="1" fill-rule="nonzero"/><g clip-path="url(#80ef6acc07)"><path fill="#000000" d="M 365.5 256.246094 C 285.8125 256.257812 206.125 256.222656 126.4375 256.246094 C 101.550781 256.253906 76.667969 256.304688 51.78125 256.429688 C 50.191406 256.4375 50.1875 258.90625 51.78125 258.898438 C 137.257812 258.476562 222.730469 259.171875 308.207031 258.878906 C 327.304688 258.816406 346.402344 258.71875 365.5 258.71875 C 367.09375 258.71875 367.09375 256.246094 365.5 256.246094 " fill-opacity="1" fill-rule="nonzero"/></g><path fill="#000000" d="M 14.605469 109.484375 C 14.71875 109.457031 14.832031 109.410156 14.949219 109.339844 C 20.289062 106.144531 29.71875 115.039062 23.058594 119.234375 C 19.59375 121.417969 14.605469 122 11.929688 118.339844 C 9.496094 115.007812 10.917969 111.007812 14.605469 109.484375 Z M 23.769531 121.683594 C 34.070312 116.027344 22.054688 102.207031 13.703125 107.203125 C 13.699219 107.207031 13.695312 107.210938 13.691406 107.214844 C 9.035156 109.265625 6.671875 114.195312 9.359375 118.921875 C 12.378906 124.226562 18.875 124.367188 23.769531 121.683594 " fill-opacity="1" fill-rule="nonzero"/><path fill="#000000" d="M 15.042969 150.753906 C 18.339844 148.808594 22.320312 150.003906 23.769531 153.566406 C 23.796875 153.675781 23.84375 153.792969 23.914062 153.90625 C 26.996094 159.066406 17.585938 166.617188 13.734375 160.808594 C 11.570312 157.539062 11.339844 152.9375 15.042969 150.753906 Z M 26.050781 152.660156 C 26.050781 152.660156 26.046875 152.65625 26.046875 152.65625 C 24.046875 148.070312 19.089844 146.007812 14.4375 148.277344 C 9.210938 150.824219 8.640625 156.816406 11.289062 161.539062 C 16.5625 170.941406 30.894531 160.769531 26.050781 152.660156 " fill-opacity="1" fill-rule="nonzero"/><path fill="#000000" d="M 12.765625 204.152344 C 12.164062 200.433594 15.535156 195.917969 19.394531 196.136719 C 23.773438 196.378906 26.679688 200.824219 24.792969 204.8125 C 24.742188 204.902344 24.695312 205.003906 24.664062 205.121094 C 23.285156 210 13.550781 209.007812 12.765625 204.152344 Z M 24.152344 195.285156 C 20.664062 192.894531 15.878906 193.152344 13.058594 196.4375 C 10.742188 199.128906 9.199219 203.496094 11.121094 206.792969 C 12.710938 209.515625 16.105469 210.691406 19.113281 210.695312 C 22.425781 210.699219 26.027344 209.246094 27.03125 205.839844 C 28.757812 201.964844 27.746094 197.753906 24.152344 195.285156 " fill-opacity="1" fill-rule="nonzero"/><path fill="#000000" d="M 18.738281 254.335938 C 18.617188 254.300781 18.480469 254.28125 18.332031 254.285156 C 13.085938 254.382812 9.417969 244.070312 15.074219 242.097656 C 18.882812 240.769531 24.300781 242.871094 25.300781 246.945312 C 26.351562 251.230469 23.070312 254.90625 18.738281 254.335938 Z M 23.550781 240.878906 C 20.269531 239.011719 14.777344 238.363281 11.832031 241.210938 C 9.441406 243.519531 9.460938 247.277344 10.503906 250.214844 C 11.699219 253.582031 14.492188 256.828125 18.332031 256.753906 C 18.339844 256.753906 18.34375 256.753906 18.347656 256.753906 C 22.417969 257.207031 26.191406 255.40625 27.523438 251.300781 C 28.800781 247.363281 27.171875 242.9375 23.550781 240.878906 " fill-opacity="1" fill-rule="nonzero"/></svg>