<svg xmlns="http://www.w3.org/2000/svg" xmlns:xlink="http://www.w3.org/1999/xlink" width="300" zoomAndPan="magnify" viewBox="0 0 375 374.999991" height="300" preserveAspectRatio="xMidYMid meet" version="1.0"><defs><clipPath id="17d6d7659f"><path d="M 11 32.320312 L 364 32.320312 L 364 337.570312 L 11 337.570312 Z M 11 32.320312 " clip-rule="nonzero"/></clipPath><clipPath id="e7a4b30d42"><path d="M 46 164.628906 L 330 164.628906 L 330 318.378906 L 46 318.378906 Z M 46 164.628906 " clip-rule="nonzero"/></clipPath></defs><g clip-path="url(#17d6d7659f)"><path fill="#231f20" d="M 363.578125 337.523438 L 11.316406 337.523438 L 12.085938 336.191406 L 187.445312 32.320312 Z M 14.390625 335.746094 L 360.503906 335.746094 L 187.445312 35.875 Z M 14.390625 335.746094 " fill-opacity="1" fill-rule="nonzero"/></g><g clip-path="url(#e7a4b30d42)"><path fill="#393536" d="M 311.53125 303.191406 C 321.023438 308.585938 326 308.390625 327.363281 307.421875 C 327.707031 307.179688 327.710938 306.964844 327.671875 306.769531 C 327.484375 305.921875 325.875 304.410156 322.207031 303.722656 C 320.890625 303.476562 317.152344 303.304688 311.53125 303.191406 Z M 69.078125 303.183594 C 62.476562 303.183594 58.007812 303.542969 56.21875 304.253906 C 53.101562 305.5 47.726562 309.464844 48.796875 313.417969 C 49.152344 314.738281 49.835938 315.53125 50.9375 315.917969 C 56.410156 317.835938 69.613281 309.492188 78.371094 303.367188 C 74.933594 303.242188 71.820312 303.183594 69.078125 303.183594 Z M 52.707031 318.386719 C 51.792969 318.386719 50.953125 318.265625 50.207031 318 C 48.410156 317.371094 47.214844 316.023438 46.667969 313.996094 C 45.140625 308.332031 51.890625 303.605469 55.402344 302.203125 C 59.148438 300.710938 70.691406 300.804688 81.316406 301.277344 C 82.621094 300.339844 83.75 299.515625 84.632812 298.867188 C 85.789062 298.015625 86.679688 297.363281 87.234375 296.980469 C 100.242188 288.089844 113.375 278.914062 126.078125 270.042969 L 134.671875 264.039062 C 138.226562 261.558594 141.773438 259.046875 145.320312 256.53125 C 156.472656 248.628906 168.007812 240.460938 179.851562 233.25 C 180.378906 232.945312 181.054688 233.097656 181.367188 233.621094 C 181.683594 234.144531 181.519531 234.824219 180.996094 235.140625 C 169.21875 242.304688 157.71875 250.453125 146.597656 258.332031 C 143.039062 260.851562 139.492188 263.363281 135.929688 265.851562 L 127.335938 271.851562 C 114.632812 280.730469 101.496094 289.90625 88.476562 298.808594 C 87.9375 299.175781 87.0625 299.816406 85.933594 300.644531 C 85.570312 300.910156 85.203125 301.179688 84.835938 301.449219 C 85.367188 301.476562 85.898438 301.503906 86.417969 301.535156 C 98.597656 302.207031 146.59375 301.796875 197.390625 301.363281 C 238.160156 301.015625 279.898438 300.65625 303.570312 300.882812 C 295.773438 295.960938 284.558594 288.738281 271.90625 280.59375 C 244.554688 262.984375 213.550781 243.023438 202.953125 237.183594 C 193.144531 231.785156 189.585938 228.796875 188.84375 225.34375 C 188.140625 222.085938 190.355469 218.792969 193.09375 215.132812 C 193.210938 215 198.289062 209.347656 203.304688 202.96875 C 209.984375 194.476562 209.460938 187.632812 209.457031 187.5625 C 209.449219 176.101562 200.222656 166.855469 188.878906 166.855469 C 177.53125 166.855469 168.296875 176.101562 168.296875 187.460938 C 168.296875 188.070312 167.804688 188.566406 167.199219 188.566406 C 166.589844 188.566406 166.09375 188.070312 166.09375 187.460938 C 166.09375 174.882812 176.316406 164.648438 188.878906 164.648438 C 201.4375 164.648438 211.65625 174.882812 211.65625 187.460938 C 211.683594 187.667969 212.300781 195.09375 205.039062 204.335938 C 199.972656 210.777344 194.84375 216.480469 194.792969 216.535156 C 192 220.273438 190.539062 222.746094 190.996094 224.878906 C 191.570312 227.527344 195.097656 230.339844 204.011719 235.25 C 214.683594 241.125 245.71875 261.105469 273.097656 278.738281 C 287.507812 288.015625 300.054688 296.089844 307.792969 300.933594 C 315.691406 301.042969 320.949219 301.238281 322.613281 301.554688 C 326.585938 302.296875 329.347656 304.117188 329.824219 306.300781 C 330.074219 307.449219 329.640625 308.511719 328.636719 309.222656 C 325.988281 311.089844 319.164062 310.597656 307.863281 303.574219 C 307.628906 303.425781 307.378906 303.273438 307.132812 303.121094 C 284.457031 302.820312 240.394531 303.203125 197.410156 303.570312 C 146.558594 304.007812 98.539062 304.417969 86.296875 303.738281 C 84.8125 303.65625 83.363281 303.582031 81.972656 303.519531 C 71.398438 311.066406 59.757812 318.386719 52.707031 318.386719 " fill-opacity="1" fill-rule="nonzero"/></g></svg>