<svg xmlns="http://www.w3.org/2000/svg" xmlns:xlink="http://www.w3.org/1999/xlink" width="500" zoomAndPan="magnify" viewBox="0 0 375 374.999991" height="500" preserveAspectRatio="xMidYMid meet" version="1.0"><defs><clipPath id="04b4d03664"><path d="M 25.753906 63 L 230 63 L 230 192 L 25.753906 192 Z M 25.753906 63 " clip-rule="nonzero"/></clipPath><clipPath id="3e730d1415"><path d="M 63.269531 145.5625 L 191.722656 145.5625 L 191.722656 349.003906 L 63.269531 349.003906 Z M 63.269531 145.5625 " clip-rule="nonzero"/></clipPath><clipPath id="2ffc986c16"><path d="M 145.527344 183.195312 L 348.964844 183.195312 L 348.964844 311.566406 L 145.527344 311.566406 Z M 145.527344 183.195312 " clip-rule="nonzero"/></clipPath><clipPath id="83298b1ff1"><path d="M 183 25.753906 L 312 25.753906 L 312 230 L 183 230 Z M 183 25.753906 " clip-rule="nonzero"/></clipPath></defs><g clip-path="url(#04b4d03664)"><path fill="#000000" d="M 68.320312 186.753906 C 70.773438 186.925781 78.410156 187.6875 102.90625 190.132812 C 107.363281 190.128906 112.976562 189.3125 115.140625 187.011719 C 115.785156 186.328125 116.074219 185.558594 116.019531 184.664062 C 116.019531 181.429688 114.601562 180.023438 111.59375 177.78125 C 106.886719 174.273438 104.1875 169.308594 104.1875 164.15625 C 104.1875 153.898438 114.644531 145.550781 127.496094 145.550781 C 139.644531 145.550781 149.445312 153.339844 150.800781 164.070312 C 151.496094 169.585938 149.171875 174.253906 143.691406 178.339844 C 143.363281 178.589844 143.039062 178.820312 142.734375 179.046875 C 140.390625 180.746094 138.976562 181.769531 138.976562 184.617188 C 139.136719 187.785156 144.480469 189.09375 149.722656 188.988281 L 186.691406 186.652344 L 184.355469 149.652344 C 184.230469 143.878906 185.671875 137.664062 190.09375 137.441406 C 190.09375 137.441406 190.097656 137.441406 190.097656 137.441406 C 193.699219 137.441406 195.085938 139.355469 196.847656 141.78125 C 197.066406 142.082031 197.296875 142.398438 197.539062 142.722656 C 201.347656 147.828125 205.46875 149.910156 210.503906 149.277344 C 220.519531 148.011719 227.789062 138.800781 227.789062 127.371094 C 227.789062 115.292969 220.074219 105.46875 210.59375 105.46875 C 205.824219 105.46875 201.386719 107.898438 198.097656 112.308594 C 195.921875 115.230469 194.074219 117.300781 190.128906 117.300781 C 188.882812 117.378906 187.742188 116.949219 186.773438 116.039062 C 183.46875 112.925781 183.214844 105.050781 183.214844 102.707031 L 186.667969 68.058594 L 152.089844 64.605469 C 147.628906 64.609375 142.019531 65.429688 139.855469 67.726562 C 139.207031 68.414062 138.921875 69.183594 138.976562 70.078125 C 138.976562 73.3125 140.394531 74.71875 143.402344 76.960938 C 148.105469 80.464844 150.804688 85.433594 150.804688 90.582031 C 150.804688 100.839844 140.351562 109.1875 127.496094 109.1875 C 115.347656 109.1875 105.546875 101.402344 104.195312 90.667969 C 103.496094 85.15625 105.824219 80.484375 111.304688 76.398438 C 111.632812 76.152344 111.953125 75.917969 112.261719 75.695312 C 114.605469 73.996094 116.019531 72.96875 116.019531 70.121094 C 115.859375 66.957031 110.523438 65.636719 105.273438 65.753906 L 68.300781 68.085938 L 70.636719 105.085938 C 70.765625 110.859375 69.324219 117.078125 64.898438 117.296875 C 61.296875 117.296875 59.90625 115.386719 58.148438 112.960938 C 57.929688 112.660156 57.699219 112.34375 57.457031 112.015625 C 53.648438 106.910156 49.53125 104.832031 44.488281 105.464844 C 34.472656 106.726562 27.203125 115.941406 27.203125 127.371094 C 27.203125 139.445312 34.917969 149.273438 44.402344 149.273438 C 49.171875 149.273438 53.609375 146.84375 56.894531 142.433594 C 59.074219 139.511719 60.921875 137.441406 64.867188 137.441406 C 66.101562 137.367188 67.25 137.789062 68.222656 138.703125 C 71.523438 141.8125 71.78125 149.691406 71.78125 152.03125 Z M 102.835938 191.539062 C 102.765625 191.535156 67.769531 188.039062 67.492188 188.011719 L 66.785156 187.945312 L 66.855469 187.242188 L 70.375 151.960938 C 70.371094 147.5 69.554688 141.890625 67.253906 139.726562 C 66.570312 139.082031 65.804688 138.800781 64.90625 138.847656 C 61.671875 138.847656 60.265625 140.269531 58.023438 143.273438 C 54.515625 147.980469 49.550781 150.675781 44.402344 150.675781 C 34.140625 150.675781 25.796875 140.222656 25.796875 127.371094 C 25.796875 115.21875 33.585938 105.421875 44.3125 104.066406 C 49.824219 103.375 54.496094 105.695312 58.585938 111.175781 C 58.832031 111.503906 59.066406 111.824219 59.289062 112.136719 C 60.988281 114.476562 62.015625 115.890625 64.859375 115.890625 C 68.03125 115.734375 69.34375 110.378906 69.230469 105.144531 L 66.808594 66.769531 L 105.214844 64.347656 C 110.984375 64.21875 117.203125 65.660156 117.425781 70.082031 C 117.425781 73.6875 115.511719 75.078125 113.089844 76.832031 C 112.785156 77.054688 112.46875 77.285156 112.144531 77.527344 C 107.039062 81.339844 104.957031 85.457031 105.589844 90.496094 C 106.855469 100.511719 116.066406 107.78125 127.496094 107.78125 C 139.574219 107.78125 149.398438 100.066406 149.398438 90.582031 C 149.398438 85.8125 146.96875 81.375 142.5625 78.089844 C 139.636719 75.910156 137.566406 74.0625 137.566406 70.117188 C 137.492188 68.875 137.917969 67.730469 138.828125 66.761719 C 141.941406 63.457031 149.820312 63.203125 152.160156 63.203125 L 188.210938 66.796875 L 184.617188 102.777344 C 184.621094 107.238281 185.441406 112.847656 187.738281 115.015625 C 188.425781 115.660156 189.214844 115.953125 190.085938 115.890625 C 193.324219 115.890625 194.726562 114.472656 196.96875 111.464844 C 200.480469 106.761719 205.445312 104.058594 210.59375 104.058594 C 220.851562 104.058594 229.199219 114.515625 229.199219 127.371094 C 229.199219 139.519531 221.410156 149.320312 210.679688 150.671875 C 205.167969 151.367188 200.496094 149.042969 196.410156 143.566406 C 196.164062 143.234375 195.929688 142.914062 195.707031 142.605469 C 194.007812 140.261719 192.980469 138.847656 190.132812 138.847656 C 186.964844 139.007812 185.648438 144.359375 185.761719 149.59375 L 188.183594 187.972656 L 149.78125 190.394531 C 144.011719 190.53125 137.789062 189.078125 137.570312 184.660156 C 137.566406 181.054688 139.484375 179.664062 141.90625 177.90625 C 142.210938 177.683594 142.523438 177.453125 142.851562 177.210938 C 147.957031 173.402344 150.039062 169.28125 149.402344 164.246094 C 148.140625 154.230469 138.925781 146.960938 127.496094 146.960938 C 115.421875 146.960938 105.597656 154.675781 105.597656 164.15625 C 105.597656 168.925781 108.023438 173.363281 112.433594 176.648438 C 115.359375 178.832031 117.425781 180.675781 117.425781 184.621094 C 117.503906 185.863281 117.078125 187.007812 116.164062 187.976562 C 113.054688 191.28125 105.175781 191.539062 102.835938 191.539062 " fill-opacity="1" fill-rule="nonzero"/></g><g clip-path="url(#3e730d1415)"><path fill="#000000" d="M 105.898438 304.15625 C 111.46875 304.15625 117.214844 305.652344 117.425781 309.902344 C 117.425781 313.503906 115.511719 314.894531 113.085938 316.652344 C 112.785156 316.875 112.46875 317.101562 112.144531 317.34375 C 107.039062 321.152344 104.957031 325.273438 105.589844 330.3125 C 106.855469 340.328125 116.070312 347.597656 127.496094 347.597656 C 139.574219 347.597656 149.398438 339.882812 149.398438 330.402344 C 149.398438 325.628906 146.96875 321.191406 142.5625 317.90625 C 139.636719 315.726562 137.566406 313.878906 137.566406 309.9375 C 137.492188 308.691406 137.917969 307.550781 138.828125 306.582031 C 141.941406 303.277344 149.820312 303.019531 152.15625 303.019531 L 186.808594 306.476562 L 190.261719 271.894531 C 190.257812 267.4375 189.4375 261.828125 187.140625 259.660156 C 186.453125 259.015625 185.671875 258.730469 184.792969 258.78125 C 181.554688 258.78125 180.148438 260.199219 177.910156 263.207031 C 174.398438 267.914062 169.433594 270.613281 164.285156 270.613281 C 154.027344 270.613281 145.679688 260.15625 145.679688 247.304688 C 145.679688 235.15625 153.46875 225.355469 164.199219 224.003906 C 169.710938 223.308594 174.378906 225.628906 178.46875 231.109375 C 178.714844 231.441406 178.949219 231.761719 179.175781 232.070312 C 180.875 234.414062 181.902344 235.824219 184.746094 235.824219 C 187.910156 235.667969 189.230469 230.3125 189.117188 225.082031 L 186.78125 188.109375 L 149.78125 190.445312 C 144.039062 190.574219 137.789062 189.128906 137.570312 184.707031 C 137.566406 181.101562 139.484375 179.710938 141.910156 177.953125 C 142.210938 177.730469 142.527344 177.507812 142.851562 177.265625 C 147.957031 173.453125 150.039062 169.335938 149.402344 164.296875 C 148.140625 154.28125 138.925781 147.011719 127.496094 147.011719 C 115.421875 147.011719 105.597656 154.726562 105.597656 164.210938 C 105.597656 168.976562 108.023438 173.414062 112.433594 176.703125 C 115.359375 178.882812 117.425781 180.730469 117.425781 184.671875 C 117.503906 185.914062 117.078125 187.058594 116.164062 188.027344 C 113.054688 191.332031 105.175781 191.585938 102.835938 191.585938 L 68.1875 188.132812 L 64.734375 222.710938 C 64.738281 227.171875 65.558594 232.78125 67.855469 234.945312 C 68.542969 235.59375 69.300781 235.886719 70.203125 235.828125 C 73.4375 235.824219 74.84375 234.40625 77.085938 231.398438 C 80.59375 226.691406 85.558594 223.996094 90.710938 223.996094 C 100.96875 223.996094 109.3125 234.453125 109.3125 247.304688 C 109.3125 259.453125 101.527344 269.253906 90.796875 270.609375 C 85.285156 271.300781 80.613281 268.980469 76.527344 263.5 C 76.277344 263.167969 76.046875 262.847656 75.820312 262.535156 C 74.121094 260.195312 73.09375 258.78125 70.25 258.78125 C 67.082031 258.941406 65.765625 264.292969 65.878906 269.527344 L 68.214844 306.5 L 105.214844 304.164062 C 105.441406 304.15625 105.671875 304.15625 105.898438 304.15625 Z M 127.496094 349.003906 C 115.347656 349.003906 105.546875 341.21875 104.195312 330.488281 C 103.496094 324.972656 105.824219 320.304688 111.304688 316.214844 C 111.632812 315.96875 111.953125 315.738281 112.257812 315.515625 C 114.605469 313.8125 116.019531 312.785156 116.019531 309.941406 C 115.859375 306.773438 110.523438 305.464844 105.273438 305.570312 L 66.898438 307.992188 L 64.472656 269.585938 C 64.347656 263.8125 65.789062 257.59375 70.210938 257.375 C 70.210938 257.375 70.210938 257.375 70.214844 257.375 C 73.8125 257.375 75.203125 259.289062 76.960938 261.710938 C 77.183594 262.015625 77.410156 262.332031 77.65625 262.65625 C 81.464844 267.765625 85.585938 269.851562 90.621094 269.210938 C 100.636719 267.945312 107.90625 258.734375 107.90625 247.304688 C 107.90625 235.226562 100.191406 225.402344 90.710938 225.402344 C 85.941406 225.402344 81.503906 227.832031 78.214844 232.242188 C 76.035156 235.164062 74.191406 237.234375 70.246094 237.234375 C 69.011719 237.304688 67.859375 236.882812 66.890625 235.972656 C 63.585938 232.859375 63.332031 224.980469 63.332031 222.640625 L 66.925781 186.59375 L 102.90625 190.183594 C 107.363281 190.179688 112.972656 189.359375 115.140625 187.0625 C 115.785156 186.375 116.074219 185.609375 116.019531 184.714844 C 116.019531 181.480469 114.601562 180.074219 111.59375 177.828125 C 106.886719 174.320312 104.1875 169.355469 104.1875 164.210938 C 104.1875 153.949219 114.644531 145.605469 127.496094 145.605469 C 139.644531 145.605469 149.445312 153.390625 150.800781 164.121094 C 151.496094 169.636719 149.171875 174.304688 143.691406 178.390625 C 143.363281 178.636719 143.042969 178.871094 142.738281 179.09375 C 140.390625 180.792969 138.976562 181.820312 138.976562 184.667969 C 139.136719 187.835938 144.53125 189.15625 149.722656 189.039062 L 188.097656 186.617188 L 190.523438 225.023438 C 190.648438 230.796875 189.207031 237.011719 184.785156 237.230469 C 184.785156 237.230469 184.78125 237.230469 184.78125 237.230469 C 181.179688 237.230469 179.792969 235.320312 178.035156 232.898438 C 177.8125 232.59375 177.585938 232.277344 177.339844 231.953125 C 173.527344 226.84375 169.40625 224.761719 164.375 225.398438 C 154.359375 226.660156 147.089844 235.875 147.089844 247.304688 C 147.089844 259.382812 154.804688 269.207031 164.285156 269.207031 C 169.054688 269.207031 173.488281 266.777344 176.777344 262.367188 C 178.957031 259.445312 180.804688 257.375 184.75 257.375 C 185.992188 257.300781 187.136719 257.722656 188.105469 258.636719 C 191.410156 261.75 191.664062 269.625 191.664062 271.964844 L 188.070312 308.015625 L 152.085938 304.425781 C 147.628906 304.429688 142.019531 305.246094 139.855469 307.546875 C 139.207031 308.230469 138.921875 309 138.976562 309.894531 C 138.976562 313.128906 140.394531 314.535156 143.402344 316.777344 C 148.105469 320.285156 150.804688 325.25 150.804688 330.402344 C 150.804688 340.660156 140.351562 349.003906 127.496094 349.003906 " fill-opacity="1" fill-rule="nonzero"/></g><g clip-path="url(#2ffc986c16)"><path fill="#000000" d="M 188.089844 306.699219 L 222.671875 310.152344 C 227.132812 310.144531 232.742188 309.328125 234.90625 307.03125 C 235.550781 306.34375 235.839844 305.578125 235.785156 304.683594 C 235.785156 301.445312 234.367188 300.042969 231.359375 297.800781 C 226.652344 294.289062 223.953125 289.324219 223.953125 284.175781 C 223.953125 273.917969 234.410156 265.570312 247.261719 265.570312 C 259.410156 265.570312 269.210938 273.359375 270.566406 284.089844 C 271.261719 289.601562 268.9375 294.273438 263.457031 298.359375 C 263.128906 298.605469 262.804688 298.839844 262.496094 299.0625 C 260.15625 300.761719 258.742188 301.789062 258.742188 304.636719 C 258.902344 307.804688 264.289062 309.125 269.484375 309.007812 L 306.457031 306.671875 L 304.121094 269.671875 C 303.996094 263.898438 305.4375 257.679688 309.859375 257.460938 C 313.464844 257.460938 314.851562 259.371094 316.609375 261.792969 C 316.832031 262.097656 317.058594 262.414062 317.304688 262.742188 C 321.113281 267.847656 325.238281 269.933594 330.269531 269.292969 C 340.285156 268.03125 347.554688 258.820312 347.554688 247.386719 C 347.554688 235.3125 339.839844 225.488281 330.359375 225.488281 C 325.589844 225.488281 321.152344 227.914062 317.867188 232.324219 C 315.6875 235.246094 313.839844 237.316406 309.894531 237.316406 C 308.664062 237.386719 307.511719 236.96875 306.539062 236.054688 C 303.238281 232.945312 302.980469 225.066406 302.980469 222.726562 L 306.433594 188.078125 L 271.855469 184.625 C 267.394531 184.628906 261.785156 185.449219 259.621094 187.746094 C 258.976562 188.433594 258.6875 189.199219 258.738281 190.09375 C 258.742188 193.328125 260.160156 194.734375 263.167969 196.980469 C 267.875 200.488281 270.570312 205.449219 270.570312 210.601562 C 270.570312 220.859375 260.117188 229.207031 247.261719 229.207031 C 235.113281 229.207031 225.3125 221.417969 223.960938 210.6875 C 223.261719 205.171875 225.589844 200.503906 231.070312 196.417969 C 231.398438 196.171875 231.722656 195.9375 232.027344 195.714844 C 234.371094 194.011719 235.785156 192.984375 235.785156 190.140625 C 235.625 186.972656 230.308594 185.660156 225.039062 185.769531 L 188.066406 188.105469 L 190.402344 225.105469 C 190.53125 230.878906 189.089844 237.097656 184.667969 237.316406 C 184.664062 237.316406 184.664062 237.316406 184.664062 237.316406 C 181.0625 237.316406 179.671875 235.402344 177.914062 232.980469 C 177.691406 232.675781 177.464844 232.359375 177.222656 232.035156 C 173.410156 226.925781 169.285156 224.847656 164.253906 225.480469 C 154.238281 226.746094 146.96875 235.957031 146.96875 247.386719 C 146.96875 259.464844 154.683594 269.289062 164.167969 269.289062 C 168.9375 269.289062 173.371094 266.859375 176.660156 262.449219 C 178.839844 259.527344 180.6875 257.457031 184.632812 257.457031 C 185.851562 257.382812 187.015625 257.804688 187.988281 258.71875 C 191.289062 261.832031 191.546875 269.710938 191.546875 272.050781 Z M 222.601562 311.554688 L 186.550781 307.960938 L 190.140625 271.980469 C 190.136719 267.519531 189.320312 261.910156 187.023438 259.746094 C 186.335938 259.097656 185.546875 258.816406 184.675781 258.863281 C 181.4375 258.867188 180.035156 260.285156 177.789062 263.292969 C 174.28125 268 169.316406 270.699219 164.167969 270.699219 C 153.90625 270.699219 145.5625 260.242188 145.5625 247.386719 C 145.5625 235.238281 153.347656 225.4375 164.078125 224.085938 C 169.597656 223.394531 174.261719 225.714844 178.351562 231.191406 C 178.597656 231.523438 178.828125 231.84375 179.054688 232.152344 C 180.753906 234.496094 181.78125 235.910156 184.628906 235.910156 C 187.796875 235.75 189.113281 230.398438 188.996094 225.164062 L 186.574219 186.789062 L 224.980469 184.363281 C 230.746094 184.230469 236.972656 185.675781 237.191406 190.101562 C 237.191406 193.703125 235.277344 195.09375 232.855469 196.851562 C 232.554688 197.074219 232.238281 197.300781 231.910156 197.546875 C 226.804688 201.355469 224.722656 205.476562 225.355469 210.511719 C 226.621094 220.527344 235.832031 227.796875 247.261719 227.796875 C 259.339844 227.796875 269.164062 220.082031 269.164062 210.601562 C 269.164062 205.832031 266.734375 201.394531 262.328125 198.105469 C 259.402344 195.925781 257.335938 194.078125 257.335938 190.136719 C 257.257812 188.894531 257.683594 187.75 258.59375 186.78125 C 261.707031 183.476562 269.585938 183.21875 271.925781 183.21875 L 307.976562 186.816406 L 304.382812 222.796875 C 304.390625 227.253906 305.207031 232.867188 307.507812 235.03125 C 308.191406 235.675781 308.960938 235.964844 309.851562 235.910156 C 313.085938 235.910156 314.492188 234.492188 316.734375 231.484375 C 320.246094 226.777344 325.207031 224.078125 330.359375 224.078125 C 340.617188 224.078125 348.964844 234.535156 348.964844 247.386719 C 348.964844 259.539062 341.175781 269.339844 330.445312 270.691406 C 324.929688 271.390625 320.265625 269.0625 316.175781 263.582031 C 315.929688 263.25 315.695312 262.929688 315.46875 262.621094 C 313.769531 260.277344 312.746094 258.867188 309.898438 258.867188 C 306.734375 259.023438 305.414062 264.378906 305.527344 269.613281 L 307.953125 307.988281 L 269.546875 310.414062 C 263.816406 310.539062 257.554688 309.097656 257.335938 304.675781 C 257.335938 301.070312 259.246094 299.683594 261.671875 297.921875 C 261.972656 297.703125 262.292969 297.472656 262.617188 297.230469 C 267.722656 293.421875 269.804688 289.300781 269.167969 284.265625 C 267.902344 274.25 258.691406 266.980469 247.261719 266.980469 C 235.1875 266.980469 225.363281 274.695312 225.363281 284.175781 C 225.363281 288.945312 227.792969 293.378906 232.199219 296.671875 C 235.125 298.847656 237.191406 300.695312 237.191406 304.640625 C 237.269531 305.882812 236.84375 307.027344 235.929688 307.996094 C 232.820312 311.296875 224.941406 311.554688 222.601562 311.554688 " fill-opacity="1" fill-rule="nonzero"/></g><g clip-path="url(#83298b1ff1)"><path fill="#000000" d="M 225.664062 184.304688 C 231.234375 184.304688 236.976562 185.804688 237.191406 190.050781 C 237.195312 193.652344 235.28125 195.042969 232.859375 196.800781 C 232.554688 197.023438 232.238281 197.25 231.910156 197.496094 C 226.804688 201.304688 224.71875 205.425781 225.355469 210.460938 C 226.621094 220.476562 235.832031 227.746094 247.261719 227.746094 C 259.335938 227.746094 269.160156 220.03125 269.160156 210.550781 C 269.160156 205.78125 266.734375 201.34375 262.324219 198.054688 C 259.402344 195.878906 257.332031 194.03125 257.332031 190.085938 C 257.257812 188.84375 257.679688 187.699219 258.597656 186.730469 C 261.707031 183.429688 269.585938 183.171875 271.925781 183.171875 L 306.574219 186.625 L 310.027344 152.046875 C 310.023438 147.585938 309.203125 141.976562 306.90625 139.8125 C 306.21875 139.164062 305.453125 138.886719 304.558594 138.933594 C 301.320312 138.933594 299.914062 140.351562 297.671875 143.359375 C 294.164062 148.066406 289.199219 150.761719 284.050781 150.761719 C 273.789062 150.761719 265.445312 140.308594 265.445312 127.453125 C 265.445312 115.304688 273.234375 105.503906 283.960938 104.152344 C 289.476562 103.457031 294.148438 105.78125 298.230469 111.261719 C 298.480469 111.589844 298.710938 111.910156 298.9375 112.21875 C 300.636719 114.558594 301.664062 115.976562 304.511719 115.976562 C 307.679688 115.816406 308.996094 110.464844 308.878906 105.230469 L 306.546875 68.261719 L 269.542969 70.597656 C 263.777344 70.714844 257.554688 69.28125 257.335938 64.855469 C 257.332031 61.253906 259.25 59.863281 261.671875 58.105469 C 261.976562 57.882812 262.289062 57.65625 262.617188 57.414062 C 267.722656 53.601562 269.804688 49.480469 269.167969 44.445312 C 267.90625 34.429688 258.691406 27.164062 247.261719 27.164062 C 235.1875 27.164062 225.363281 34.875 225.363281 44.359375 C 225.363281 49.128906 227.792969 53.566406 232.199219 56.851562 C 235.125 59.03125 237.195312 60.878906 237.195312 64.824219 C 237.269531 66.066406 236.84375 67.210938 235.929688 68.179688 C 232.820312 71.480469 224.941406 71.738281 222.601562 71.738281 L 187.953125 68.285156 L 184.5 102.863281 C 184.503906 107.320312 185.324219 112.933594 187.621094 115.097656 C 188.308594 115.746094 189.101562 116.03125 189.96875 115.976562 C 193.203125 115.976562 194.609375 114.558594 196.851562 111.550781 C 200.359375 106.84375 205.324219 104.144531 210.476562 104.144531 C 220.734375 104.144531 229.078125 114.601562 229.078125 127.453125 C 229.078125 139.601562 221.292969 149.402344 210.5625 150.757812 C 205.058594 151.449219 200.378906 149.128906 196.292969 143.652344 C 196.042969 143.320312 195.8125 143 195.585938 142.6875 C 193.886719 140.347656 192.863281 138.933594 190.015625 138.933594 C 186.847656 139.089844 185.53125 144.445312 185.644531 149.675781 L 187.980469 186.648438 L 224.980469 184.3125 C 225.207031 184.308594 225.4375 184.304688 225.664062 184.304688 Z M 247.261719 229.15625 C 235.113281 229.15625 225.3125 221.367188 223.957031 210.636719 C 223.261719 205.121094 225.589844 200.453125 231.066406 196.367188 C 231.398438 196.121094 231.722656 195.886719 232.03125 195.660156 C 234.371094 193.960938 235.785156 192.933594 235.785156 190.089844 C 235.625 186.921875 230.246094 185.621094 225.039062 185.71875 L 186.664062 188.144531 L 184.238281 149.738281 C 184.113281 143.964844 185.554688 137.746094 189.976562 137.527344 C 193.582031 137.527344 194.96875 139.441406 196.726562 141.863281 C 196.949219 142.164062 197.175781 142.480469 197.417969 142.808594 C 201.230469 147.914062 205.363281 149.996094 210.386719 149.359375 C 220.402344 148.09375 227.671875 138.882812 227.671875 127.453125 C 227.671875 115.378906 219.957031 105.554688 210.476562 105.554688 C 205.703125 105.554688 201.269531 107.980469 197.980469 112.394531 C 195.800781 115.316406 193.957031 117.382812 190.011719 117.382812 C 188.78125 117.457031 187.625 117.039062 186.65625 116.125 C 183.351562 113.011719 183.097656 105.132812 183.097656 102.792969 L 186.691406 66.742188 L 222.671875 70.332031 C 227.132812 70.328125 232.738281 69.511719 234.90625 67.214844 C 235.550781 66.527344 235.839844 65.757812 235.785156 64.867188 C 235.785156 61.628906 234.367188 60.226562 231.359375 57.980469 C 226.652344 54.472656 223.953125 49.507812 223.953125 44.359375 C 223.953125 34.097656 234.410156 25.753906 247.261719 25.753906 C 259.410156 25.753906 269.210938 33.542969 270.566406 44.269531 C 271.261719 49.785156 268.9375 54.453125 263.457031 58.542969 C 263.128906 58.789062 262.808594 59.019531 262.5 59.246094 C 260.15625 60.945312 258.742188 61.972656 258.742188 64.820312 C 258.902344 67.988281 264.253906 69.3125 269.484375 69.1875 L 307.863281 66.765625 L 310.285156 105.171875 C 310.414062 110.945312 308.972656 117.164062 304.550781 117.382812 C 304.546875 117.382812 304.546875 117.382812 304.546875 117.382812 C 300.945312 117.382812 299.558594 115.46875 297.796875 113.046875 C 297.574219 112.742188 297.347656 112.425781 297.105469 112.101562 C 293.292969 106.996094 289.171875 104.914062 284.136719 105.550781 C 274.121094 106.8125 266.851562 116.023438 266.851562 127.453125 C 266.851562 139.53125 274.566406 149.355469 284.050781 149.355469 C 288.820312 149.355469 293.257812 146.925781 296.542969 142.519531 C 298.722656 139.59375 300.574219 137.523438 304.515625 137.523438 C 305.773438 137.445312 306.902344 137.875 307.871094 138.785156 C 311.171875 141.898438 311.429688 149.773438 311.429688 152.113281 L 307.835938 188.167969 L 271.855469 184.574219 C 267.394531 184.578125 261.785156 185.398438 259.621094 187.695312 C 258.972656 188.382812 258.6875 189.148438 258.742188 190.042969 C 258.742188 193.28125 260.160156 194.683594 263.167969 196.925781 C 267.871094 200.4375 270.570312 205.402344 270.570312 210.550781 C 270.570312 220.808594 260.113281 229.15625 247.261719 229.15625 " fill-opacity="1" fill-rule="nonzero"/></g></svg>